<svg xmlns="http://www.w3.org/2000/svg" viewBox="31.312 205.457 749.688 212.282" preserveAspectRatio="xMidYMid meet">
	<path fill="#0A1F62" d="M117.208,417.739c-47.836,0-85.896-34.027-85.896-82.941c0-48.907,37.01-83.241,87.991-83.241
		c34.917,0,57.267,14.895,72.622,35.248l-31.772,27.951c-10.823-13.37-22.346-22.794-41.898-22.794
		c-23.045,0-38.061,16.714-38.061,42.836c0,25.525,15.015,42.539,38.061,42.539c18.853,0,30.725-7.298,43.295-20.356l30.726,25.216
		C174.473,402.848,153.52,417.739,117.208,417.739z"/>
	<path fill="#0A1F62" d="M303.456,414.396v-10.635c-8.729,7.899-24.091,13.979-41.204,13.979
		c-34.217,0-68.433-18.229-68.433-56.806c0-35.241,32.819-52.869,74.369-52.869c16.763,0,27.586,3.041,35.268,6.383v-7.897
		c0-11.244-8.729-20.354-26.188-20.354c-21.995,0-33.517,2.735-50.279,10.628l-18.505-29.152
		c21.297-10.636,39.107-16.113,68.784-16.113c44.346,0,74.37,20.05,74.37,55.9v106.938L303.456,414.396L303.456,414.396z
		 M303.456,347.564c-8.378-4.557-16.407-6.688-33.519-6.688c-18.158,0-27.938,7.292-27.938,20.059
		c0,11.237,7.339,21.262,27.938,21.262c15.711,0,28.279-6.983,33.519-14.581V347.564z"/>
	<path fill="#0A1F62" d="M472.676,414.396v-10.023c-9.083,6.983-21.309,13.367-38.754,13.367
		c-39.112,0-71.239-25.512-71.239-85.068c0-47.694,25.839-81.114,71.239-81.114c16.054,0,30.021,5.479,38.754,12.456v-37.599
		l48.18-20.957v208.938H472.676z M472.676,304.722c-7.335-8.808-18.511-13.668-32.479-13.668
		c-18.505,0-28.631,13.979-28.631,40.711c0,32.812,12.575,46.484,31.427,46.484c15.015,0,22.693-5.471,29.683-13.369V304.722z"/>
	<path fill="#B7D30B" d="M538.336,414.396V254.908h48.183v159.486L538.336,414.396L538.336,414.396z"/>
	<path fill="#B7D30B" d="M605.719,254.908h57.263l8.727,13.058c6.285,9.415,13.271,19.753,16.762,25.832
		c3.491-6.079,10.128-16.417,16.763-25.832l8.727-13.058h57.264l-55.168,73.208L781,414.396h-57.266L605.719,254.908z"/>
	<path fill="#B7D30B" d="M593.391,414.396l39.306-52.257l53.225,0.006l-35.266,52.251H593.391L593.391,414.396z"/>
</svg>